<svg id="Out_line" height="512" viewBox="0 0 512 512" width="512" xmlns="http://www.w3.org/2000/svg" data-name="Out line"><circle cx="256" cy="448" r="8"/><path d="m496 424h-198.45764a48.34073 48.34073 0 0 0 -17.54236-17.54236v-126.45764h-16v120.67938a47.44146 47.44146 0 0 0 -16 0v-120.67938h-16v126.45764a48.34073 48.34073 0 0 0 -17.54236 17.54236h-198.45764v16h192.67944a47.43733 47.43733 0 0 0 0 16h-192.67944v16h198.45764a47.95349 47.95349 0 0 0 83.08472 0h198.45764v-16h-192.67944a47.43733 47.43733 0 0 0 0-16h192.67944zm-240 56a32 32 0 1 1 32-32 32.036 32.036 0 0 1 -32 32z"/><path d="m232 248h16v16h-16z"/><path d="m232 216h16v16h-16z"/><path d="m264 248h16v16h-16z"/><path d="m264 216h16v16h-16z"/><path d="m424 192h-8.49756a64.00661 64.00661 0 0 0 -80.197-53.78485c-6.93093-68.54108-64.96731-122.21515-135.30544-122.21515-74.99072 0-136 61.00928-136 136a136.41383 136.41383 0 0 0 3.213 29.37634 79.9896 79.9896 0 0 0 28.787 154.62366h120v-16h-120a63.99624 63.99624 0 0 1 -24.39722-123.16107 134.68069 134.68069 0 0 0 9.40161 21.058l13.99024-7.76367a119.98028 119.98028 0 1 1 222.89892-35.62451l15.71973 2.98242a136.95009 136.95009 0 0 0 2.35449-22.73877 48.01 48.01 0 0 1 64.03223 45.2476 7.99977 7.99977 0 0 0 8 8h16a56 56 0 0 1 0 112h-128v16h128a72 72 0 0 0 0-144z"/></svg>